<?xml version="1.0" encoding="utf-8"?>
<!-- Generator: Adobe Illustrator 25.0.1, SVG Export Plug-In . SVG Version: 6.00 Build 0)  -->
<svg version="1.1" id="Layer_1" xmlns="http://www.w3.org/2000/svg" xmlns:xlink="http://www.w3.org/1999/xlink" x="0px" y="0px"
	 viewBox="0 0 770.5 351.9" style="enable-background:new 0 0 770.5 351.9;" xml:space="preserve">
<style type="text/css">
	.st0{fill:url(#SVGID_1_);}
	.st1{fill:#378CFF;}
	.st2{fill:url(#SVGID_2_);}
</style>
<g>
	<g>
		<g>
			
				<linearGradient id="SVGID_1_" gradientUnits="userSpaceOnUse" x1="62" y1="206.5" x2="62" y2="354" gradientTransform="matrix(1 0 0 -1 0 354)">
				<stop  offset="0" style="stop-color:#378CFF"/>
				<stop  offset="1" style="stop-color:#37C8FF"/>
			</linearGradient>
			<path class="st0" d="M76.3,147.5H0C12.3,86.7,40.4,34.7,78,0l46,66.8C103,85.9,86.2,114,76.3,147.5z"/>
		</g>
		<g>
			<path class="st1" d="M110,217c6.3-21.3,9.8-44.8,9.8-69.5H76.3c-6.3,21.3-9.8,44.8-9.8,69.5H110z"/>
		</g>
		<g>
			<g>
				
					<linearGradient id="SVGID_2_" gradientUnits="userSpaceOnUse" x1="134" y1="2.1" x2="134" y2="206.5" gradientTransform="matrix(1 0 0 -1 0 354)">
					<stop  offset="0" style="stop-color:#9137FF"/>
					<stop  offset="1" style="stop-color:#646EFF"/>
				</linearGradient>
				<path class="st2" d="M193.3,147.5h-73.5c0,24.7-3.5,48.2-9.8,69.5c-7.8,26.6-20,49.8-35.3,67.8l46.1,67.1
					c31.3-34.1,54.6-81,65.5-134.9C190.8,194.9,193.3,171.6,193.3,147.5z"/>
			</g>
		</g>
	</g>
</g>
<g>
	<path d="M345.2,280.8c0-16.3,11.4-27.5,27.4-27.5S400,264,400,280.8c0,16.7-10.8,27.5-27.4,27.5S345.2,297.1,345.2,280.8z
		 M391,280.8c0-11.7-7.4-19.3-18.3-19.3s-18.3,7.6-18.3,19.3s7.4,19.3,18.3,19.3S391,292.4,391,280.8z"/>
	<path d="M408,269.6h8.7v4.3c2.2-3.4,6.1-5.1,10.6-5.1c9.1,0,15.1,7.6,15.1,18.6c0,12.6-7.2,20.5-18.2,20.5c-2.3,0-5.1-0.6-7.5-1.4
		v17.3H408V269.6z M433.7,288.2c0-7.1-3.4-11.7-9.2-11.7c-3,0-6,1.4-7.8,3.7v18.7c2.2,0.9,4.3,1.4,6.8,1.4
		C429.6,300.3,433.7,295.7,433.7,288.2z"/>
	<path d="M448.2,288.3c0-11.7,6.7-19.4,17.4-19.4c10.2,0,16.5,6.7,16.5,19.8v2.6h-25c0.2,5.8,4.2,9.4,11.2,9.4c4.1,0,8.5-1.4,12.8-4
		v8c-4.6,2.2-9.4,3.4-14,3.4C455.1,307.9,448.2,300.4,448.2,288.3z M457,284.7h16.3c0-5.4-2.9-8.7-7.8-8.7
		C460.5,276,457.3,279.5,457,284.7z"/>
	<path d="M489.3,269.6h8.7v5c2.7-3.8,6.6-5.8,11-5.8c7.9,0,12.6,5.1,12.6,14v24.2h-8.7v-22.6c0-5.1-2.4-7.7-6.6-7.7
		c-3.4,0-6.2,1.8-8.2,4.8v25.5h-8.7V269.6z"/>
	<path d="M546.3,304.6v-9.4c4.4,3.1,9.3,4.7,14.6,4.7c5.3,0,8.6-2.7,8.6-7c0-4-2.7-6.4-9-8.6l-1.4-0.5c-8.7-3-13-7.9-13-15.7
		c0-8.8,6.4-15,16.5-15c4.8,0,9.3,1,14.2,3.5v9.4c-4.3-3-8.6-4.6-13.5-4.6c-5.1,0-8.1,2.2-8.1,6.4c0,3.7,2.6,5.8,8.2,7.8l1.4,0.5
		c9.3,3.1,13.8,8.1,13.8,15.7c0,9.7-6.7,16.4-17.2,16.4C555.9,308.3,550.9,307.1,546.3,304.6z"/>
	<path d="M585.4,288.4c0-11.8,7.7-19.7,19.2-19.7c11.5,0,19.2,7.8,19.2,19.5c0,11.8-7.7,19.7-19.2,19.7
		C593.1,308,585.4,300.2,585.4,288.4z M615,288.4c0-7-4.2-11.8-10.4-11.8c-6.2,0-10.4,4.6-10.4,11.6c0,7,4.2,11.8,10.4,11.8
		C610.8,300,615,295.4,615,288.4z"/>
	<path d="M631,293.8v-24.2h8.7v22.7c0,4.7,2.6,7.7,6.8,7.7c3.5,0,6.2-1.9,8-4.8v-25.6h8.7v37.4h-8.1l-0.6-5
		c-2.7,3.8-6.2,5.9-11.1,5.9C635.6,308,631,302.4,631,293.8z"/>
	<path d="M672,269.6h8.7v5.5c1.8-4.2,5-6.3,8.5-6.3c1.3,0,2.5,0.2,3.6,0.5v9.5c-1.6-0.6-3.4-0.9-5.1-0.9c-3,0-5.5,1.4-7,3.4v25.7
		H672V269.6z"/>
	<path d="M696.7,288.4c0-12.2,7.4-19.6,19.4-19.6c3.8,0,7.8,1,11.3,2.8v8.8c-3.4-2.3-6.9-3.5-10.8-3.5c-6.9,0-11.1,4-11.1,11.4
		c0,7.3,4.4,11.4,11.3,11.4c3.9,0,7.8-1.6,10.8-4v8.8c-3.2,2.1-7.4,3.3-11.4,3.3C704.1,307.9,696.7,300.5,696.7,288.4z"/>
	<path d="M733.7,288.3c0-11.7,6.7-19.4,17.4-19.4c10.2,0,16.5,6.7,16.5,19.8v2.6h-25c0.2,5.8,4.2,9.4,11.2,9.4c4.1,0,8.5-1.4,12.8-4
		v8c-4.6,2.2-9.4,3.4-14,3.4C740.7,307.9,733.7,300.4,733.7,288.3z M742.6,284.7h16.3c0-5.4-2.9-8.7-7.8-8.7
		C746.1,276,742.9,279.5,742.6,284.7z"/>
</g>
<g>
	<path d="M262.9,226.2v-22.3c8.5,5.7,18,8.5,28.5,8.5c8.5,0,13.6-3.9,13.6-10.7c0-6-4.8-10.1-15.3-13.3l-2.9-0.9
		c-16.6-5.3-25.1-15.8-25.1-31.2c0-17.7,13-30.1,33.3-30.1c9.3,0,18,1.7,28.2,6.4v22.3c-9-5.6-17.2-8.5-26.5-8.5
		c-8.4,0-12.9,2.9-12.9,9.3c0,5.6,4.5,9.1,13.8,12.1l2.9,0.9c17.7,5.4,26.7,15.8,26.7,30.4c0,19.8-13.3,33.5-34.6,33.5
		C281.9,232.5,272.3,230.7,262.9,226.2z"/>
	<path d="M346.3,212.4v-36H337v-18.9h9.3v-19.1h21.1v19.1h13v18.9h-13v29.3c0,4.5,2.8,7,6.5,7c2.3,0,4.2-0.5,6.5-1.5v18.1
		c-4.5,1.9-10.4,2.6-15,2.6C353.1,231.9,346.3,225.1,346.3,212.4z"/>
	<path d="M390.3,193.8c0-22.8,13.2-37.8,34.6-37.8c20.1,0,32.4,13.2,32.4,40.3v5.1h-45.4c0.6,7.9,7.6,12.9,18.9,12.9
		c7.4,0,15.8-2.3,24.3-7v19.2c-9.1,3.6-18.6,5.4-27.4,5.4C404.4,231.9,390.3,217.5,390.3,193.8z M411.8,185.9h24.3
		c0-7.8-4.2-12.9-11.5-12.9C416.8,173,412.1,178.3,411.8,185.9z"/>
	<path d="M469.3,119.4h21.1v111h-21.1V119.4z"/>
	<path d="M505.3,119.4h21.1v111h-21.1V119.4z"/>
	<path d="M538.8,210.7c0-14,9.1-22,27.9-25.3l13.3-2.3v-1.5c0-5-4.6-7.6-13.8-7.6c-8.2,0-17,2.6-24.2,6.5v-19.8
		c8.5-2.8,19.4-5.6,27.4-5.6c20.9,0,31.6,9.5,31.6,25.9v49.4h-19.4l-1.5-9.6c-3.9,7-11.3,11.2-19.4,11.2
		C547.6,231.9,538.8,223.7,538.8,210.7z M580,207.3v-9.9l-10.7,1.9c-6,1.1-9.8,4-9.8,9c0,4.3,3.3,7,8.5,7
		C573.5,215.2,578.3,212.1,580,207.3z"/>
	<path d="M648.5,128.4h21.7v102h-21.7V128.4z"/>
	<path d="M714.2,148.8h-31v-20.5h83.7v20.5h-31v81.5h-21.7V148.8z"/>
</g>
</svg>
